<svg xmlns:dc="http://purl.org/dc/elements/1.1/" xmlns:cc="http://creativecommons.org/ns#" xmlns:rdf="http://www.w3.org/1999/02/22-rdf-syntax-ns#" xmlns:svg="http://www.w3.org/2000/svg" xmlns="http://www.w3.org/2000/svg" xmlns:sodipodi="http://sodipodi.sourceforge.net/DTD/sodipodi-0.dtd" xmlns:inkscape="http://www.inkscape.org/namespaces/inkscape" width="1215.7614" height="840" viewBox="0 0 1215.7614 840"><defs id="defs6"><clipPath clipPathUnits="userSpaceOnUse" id="clipPath18"><path d="M 0,630 H 911.821 V 0 H 0 Z" id="path16" /></clipPath><clipPath clipPathUnits="userSpaceOnUse" id="clipPath74"><path d="m 513.119,362.527 18.617,-49.259 19.848,-27.942 81.58,-7.742 7.511,22.152 c -12.463,50.663 -52.891,85.482 -59.079,90.006 v 0 c -6.187,4.524 -24.45,17.929 -24.45,17.929 v 0 z" id="path72" /></clipPath><clipPath clipPathUnits="userSpaceOnUse" id="clipPath82"><path d="M 530.137,434.637 H 673.091 V 281.395 H 530.137 Z" id="path80" /></clipPath><clipPath clipPathUnits="userSpaceOnUse" id="clipPath86"><path d="m 603.931,281.395 -73.794,116.386 69.16,36.856 73.794,-116.387 z" id="path84" /></clipPath><clipPath clipPathUnits="userSpaceOnUse" id="clipPath106"><path d="M 0,630 H 911.821 V 0 H 0 Z" id="path104" /></clipPath></defs><g id="g10" inkscape:groupmode="layer" inkscape:label="PC Frog 005 0521 v5 Complete" transform="matrix(1.3333333,0,0,-1.3333333,0,840)"><g id="g12"><g id="g14" clip-path="url(#clipPath18)"><g id="g20" transform="translate(439.9624,185.1025)"><path d="m 0,0 c 0,0 30.64,-25.471 4.325,-26.775 -55.806,-2.771 -155.172,3.633 -175.822,3.633 0,0 -56.949,2.474 -55.633,8.481 7.312,33.379 47.771,10.181 74.644,8.366 35.84,-2.417 84.24,10.636 84.24,10.636 l 56.306,19.888 z" style="fill:#4560ab;fill-opacity:1;fill-rule:nonzero;stroke:none" id="path22" /></g><g id="g24" transform="translate(439.9624,185.1025)"><path d="m 0,0 c 0,0 30.64,-25.471 4.325,-26.775 -55.806,-2.771 -155.172,3.633 -175.822,3.633 0,0 -56.949,2.474 -55.633,8.481 7.312,33.379 47.771,10.181 74.644,8.366 35.84,-2.417 84.24,10.636 84.24,10.636 l 56.306,19.888 z" style="fill:none;stroke:#172951;stroke-width:4.413;stroke-linecap:butt;stroke-linejoin:miter;stroke-miterlimit:10;stroke-dasharray:none;stroke-opacity:1" id="path26" /></g><g id="g28" transform="translate(502.1987,184.4375)"><path d="m 0,0 c 47.631,28.936 -142.928,132.873 -142.928,132.873 0,0 -71.729,24.669 -105.854,23.365 -43.675,-1.669 -48.234,-58.505 26.781,-110.569 16.305,-11.317 80.345,-37.63 137.709,-48.708" style="fill:#4560ab;fill-opacity:1;fill-rule:nonzero;stroke:#172951;stroke-width:4.413;stroke-linecap:round;stroke-linejoin:round;stroke-miterlimit:10;stroke-dasharray:none;stroke-opacity:1" id="path30" /></g><g id="g32" transform="translate(505.1987,179.4375)"><path d="m 0,0 c 47.631,28.936 -142.928,132.873 -142.928,132.873 0,0 -71.729,24.669 -105.854,23.365 -14.859,-0.568 -25.19,-7.52 -29.401,-18.498" style="fill:none;stroke:#849dd1;stroke-width:4.413;stroke-linecap:round;stroke-linejoin:round;stroke-miterlimit:10;stroke-dasharray:none;stroke-opacity:1" id="path34" /></g><g id="g36" transform="translate(322.3164,394.3711)"><path d="m 0,0 c 0,0 -11.425,-132.632 -12.71,-206.592 -0.971,-56.024 -62.051,-60.536 -116.002,-46.964 -66.632,16.767 -77.593,-5.008 -50.148,-17.775 27.446,-12.76 73.027,-10.046 73.027,-10.046 0,0 -32.638,-10.332 -3.645,-26.457 13.854,-7.703 53.991,-9.676 86.869,15.001 32.877,24.676 49.218,29.163 73.463,25.826 24.252,-3.336 75.41,1.192 44.619,14.075 -21.099,8.831 -30.862,4.251 -58.915,12.604 -28.053,8.353 -7.416,133.781 -7.416,133.781" style="fill:#4560ab;fill-opacity:1;fill-rule:nonzero;stroke:#172951;stroke-width:4.413;stroke-linecap:round;stroke-linejoin:round;stroke-miterlimit:10;stroke-dasharray:none;stroke-opacity:1" id="path38" /></g><g id="g40" transform="translate(216.4839,112.9941)"><path d="m 0,0 c 0,0 3.673,1.075 12.514,2.207 3.321,0.428 8.501,-0.042 21.269,0.954 12.371,0.968 37.402,3.807 56.119,24.943" style="fill:#4560ab;fill-opacity:1;fill-rule:nonzero;stroke:#172951;stroke-width:4.413;stroke-linecap:round;stroke-linejoin:round;stroke-miterlimit:10;stroke-dasharray:none;stroke-opacity:1" id="path42" /></g><g id="g44" transform="translate(221.4839,108.9941)"><path d="M 0,0 C 0,0 -12.749,-4.035 -15.233,-10.999" style="fill:none;stroke:#849dd1;stroke-width:4.413;stroke-linecap:round;stroke-linejoin:round;stroke-miterlimit:10;stroke-dasharray:none;stroke-opacity:1" id="path46" /></g><g id="g48" transform="translate(327.3164,390.3711)"><path d="m 0,0 c 0,0 -11.425,-132.632 -12.71,-206.592 -0.971,-56.024 -62.051,-60.536 -116.002,-46.964 -37.257,9.375 -57.109,6.701 -62.574,0.287" style="fill:none;stroke:#849dd1;stroke-width:4.413;stroke-linecap:round;stroke-linejoin:round;stroke-miterlimit:10;stroke-dasharray:none;stroke-opacity:1" id="path50" /></g><g id="g52" transform="translate(221.4839,108.9941)"><path d="m 0,0 c 0,0 3.673,1.075 12.514,2.207 3.321,0.428 8.501,-0.042 21.269,0.954 12.371,0.968 37.402,3.807 56.119,24.943" style="fill:none;stroke:#849dd1;stroke-width:4.413;stroke-linecap:round;stroke-linejoin:round;stroke-miterlimit:10;stroke-dasharray:none;stroke-opacity:1" id="path54" /></g><g id="g56" transform="translate(306.3438,497.0244)"><path d="m 0,0 c 0,-26.677 -21.625,-48.301 -48.299,-48.301 -26.678,0 -48.303,21.624 -48.303,48.301 0,26.676 21.625,48.3 48.303,48.3 C -21.625,48.3 0,26.676 0,0" style="fill:#172951;fill-opacity:1;fill-rule:nonzero;stroke:none" id="path58" /></g><g id="g60" transform="translate(652.1304,237.876)"><path d="m 0,0 c -9.173,114.846 -70.534,151.866 -70.534,151.866 -13.607,9.406 -31.047,21.809 -43.487,35.38 l -0.798,0.899 c -7.105,45.347 -41.566,37.107 -41.566,37.107 1.046,7.134 0.274,21.246 0.274,21.246 0,30.275 -19.881,66.418 -66.416,66.418 -46.542,0 -62.381,-39.264 -62.381,-39.264 h -43.573 c -71.782,86.147 -53.466,6.438 -80.198,-12.377 -26.737,-18.81 -15.351,-39.605 -28.223,-45.546 0,0 -12.936,-0.966 -14.393,-12.938 -1.711,-14.109 11.094,-15.464 28.302,-18.992 0,0 -2.644,-8.824 6.18,-11.473 8.825,-2.649 38.831,-15.886 44.567,-28.242 5.738,-12.354 118.252,-246.981 253.413,-213.227" style="fill:#4560ab;fill-opacity:1;fill-rule:nonzero;stroke:#172951;stroke-width:4.413;stroke-linecap:butt;stroke-linejoin:miter;stroke-miterlimit:10;stroke-dasharray:none;stroke-opacity:1" id="path62" /></g><g id="g64" transform="translate(511.2808,423.0454)"><path d="m 0,0 c 0,0 30.881,-45.036 -12.398,-104.636 -33.38,-45.966 14.055,-154.196 14.055,-154.196 0,0 -94.744,-39.322 -228.457,210.634 0,0 -8.045,17.669 -26.436,26.246 -18.394,8.577 -32.851,9.397 -30.833,21.952 0,0 101.933,-19.465 149.141,-22.416 47.213,-2.946 61.634,-4.279 78.881,-2.516 17.254,1.768 24.217,3.007 24.217,3.007 l 19.432,6.873 z" style="fill:#66ccc2;fill-opacity:1;fill-rule:nonzero;stroke:none" id="path66" /></g></g></g><g id="g68"><g id="g70" clip-path="url(#clipPath74)"><g id="g76"><g id="g78" /><g id="g98"><g clip-path="url(#clipPath82)" id="g96"><g id="g94"><g clip-path="url(#clipPath86)" id="g92"><g transform="translate(551.2632,409.0391)" id="g90"><path d="m 0,0 10.689,-61.437 50.345,-51.022 39.668,10.412 L 90.013,-40.61 39.664,10.41 0,0 m 78.414,-79.458 -22.106,-5.808 -28.065,28.439 -5.959,34.246 22.106,5.808 28.074,-28.445 z" style="fill:#ffffff;fill-opacity:1;fill-rule:nonzero;stroke:none" id="path88" /></g></g></g></g></g></g></g></g><g id="g100"><g id="g102" clip-path="url(#clipPath106)"><g id="g108" transform="translate(589.6733,185.1025)"><path d="m 0,0 c 0,0 -30.64,-25.471 -4.325,-26.775 55.807,-2.771 155.173,3.633 175.823,3.633 0,0 57.898,2.763 55.631,8.481 -11.455,28.909 -47.77,10.181 -74.643,8.366 C 116.646,-8.712 68.247,4.341 68.247,4.341 L 11.942,24.229 Z" style="fill:#4560ab;fill-opacity:1;fill-rule:nonzero;stroke:none" id="path110" /></g><g id="g112" transform="translate(589.6733,185.1025)"><path d="m 0,0 c 0,0 -30.64,-25.471 -4.325,-26.775 55.807,-2.771 155.173,3.633 175.823,3.633 0,0 57.898,2.763 55.631,8.481 -11.455,28.909 -47.77,10.181 -74.643,8.366 C 116.646,-8.712 68.247,4.341 68.247,4.341 L 11.942,24.229 Z" style="fill:none;stroke:#172951;stroke-width:4.413;stroke-linecap:butt;stroke-linejoin:miter;stroke-miterlimit:10;stroke-dasharray:none;stroke-opacity:1" id="path114" /></g><g id="g116" transform="translate(809.4087,174.1748)"><path d="m 0,0 c -14.992,15.759 -45.735,1.221 -69.249,-0.367 -35.841,-2.417 -84.239,10.636 -84.239,10.636" style="fill:none;stroke:#849dd1;stroke-width:4.413;stroke-linecap:round;stroke-linejoin:round;stroke-miterlimit:10;stroke-dasharray:none;stroke-opacity:1" id="path118" /></g><g id="g120" transform="translate(496.8833,169.0518)"><path d="M 0,0 C -34.097,1.707 -111.251,29.316 -209.402,212.796" style="fill:none;stroke:#60eae6;stroke-width:5;stroke-linecap:round;stroke-linejoin:round;stroke-miterlimit:10;stroke-dasharray:none;stroke-opacity:1" id="path122" /></g><g id="g124" transform="translate(584.5454,292.5049)"><path d="M 0,0 C 33.849,30.396 94.455,77.94 130.446,65.511 181.49,47.886 135.863,-34.155 117.483,-59.643 80.379,-111.106 26.211,-116.771 26.211,-116.771" style="fill:#4560ab;fill-opacity:1;fill-rule:nonzero;stroke:#172951;stroke-width:4.413;stroke-linecap:round;stroke-linejoin:round;stroke-miterlimit:10;stroke-dasharray:none;stroke-opacity:1" id="path126" /></g><g id="g128" transform="translate(586.5454,287.5049)"><path d="M 0,0 C 33.849,30.396 94.455,77.94 130.446,65.511" style="fill:none;stroke:#849dd1;stroke-width:4.413;stroke-linecap:round;stroke-linejoin:round;stroke-miterlimit:10;stroke-dasharray:none;stroke-opacity:1" id="path130" /></g><g id="g132" transform="translate(629.6567,328.7959)"><path d="m 0,0 c -16.631,38.691 -48.061,61.924 -48.061,61.924 -13.606,9.406 -31.046,21.811 -43.487,35.382 l -0.798,0.897 c -7.104,45.345 -41.565,37.109 -41.565,37.109 1.046,7.132 0.273,21.245 0.273,21.245 0,30.276 -19.881,66.421 -66.416,66.421 -46.542,0 -62.381,-39.267 -62.381,-39.267 h -43.572 c -71.782,86.148 -53.466,6.439 -80.199,-12.371 -26.736,-18.817 -15.35,-39.612 -28.222,-45.551 0,0 -12.936,-0.967 -14.393,-12.938 -1.712,-14.106 11.094,-15.464 28.302,-18.993 0,0 -2.644,-8.824 6.18,-11.472 8.825,-2.649 38.83,-15.887 44.567,-28.244 8.263,-17.783 130.281,-262.119 253.413,-211.848" style="fill:none;stroke:#172951;stroke-width:4.413;stroke-linecap:round;stroke-linejoin:round;stroke-miterlimit:10;stroke-dasharray:none;stroke-opacity:1" id="path134" /></g><g id="g136" transform="translate(489.8374,480.061)"><path d="M 0,0 C 0,30.276 -19.69,65.264 -66.226,65.264 M -172.365,27.153 c -17.945,21.534 -30.26,32.708 -39.058,37.053" style="fill:none;stroke:#849dd1;stroke-width:4.413;stroke-linecap:round;stroke-linejoin:round;stroke-miterlimit:10;stroke-dasharray:none;stroke-opacity:1" id="path138" /></g><g id="g140" transform="translate(498.0933,426.2466)"><path d="m 0,0 c 0.655,1.124 1.459,1.908 2.432,2.607 0.964,0.679 2.067,1.198 3.245,1.51 2.357,0.656 4.971,0.424 7.2,-0.44 2.247,-0.854 4.136,-2.251 5.6,-3.879 1.461,-1.638 2.554,-3.495 3.162,-5.559 0.174,-0.592 -0.164,-1.213 -0.757,-1.387 -0.288,-0.085 -0.583,-0.048 -0.831,0.081 l -0.028,0.014 c -1.814,0.95 -3.377,1.938 -4.909,2.754 -1.524,0.82 -2.968,1.501 -4.376,1.938 C 9.326,-1.924 7.985,-1.69 6.51,-1.607 5.052,-1.516 3.373,-1.678 1.578,-1.888 L 1.261,-1.925 C 0.556,-2.007 -0.083,-1.502 -0.166,-0.797 -0.199,-0.509 -0.135,-0.232 0,0" style="fill:#172951;fill-opacity:1;fill-rule:nonzero;stroke:none" id="path142" /></g><g id="g144" transform="translate(229.1377,422.6538)"><path d="M 0,0 C 0,0 285.057,-58.246 279.764,2.649" style="fill:none;stroke:#172951;stroke-width:4.413;stroke-linecap:round;stroke-linejoin:round;stroke-miterlimit:10;stroke-dasharray:none;stroke-opacity:1" id="path146" /></g><g id="g148" transform="translate(266.647,473.4258)"><path d="m 0,0 c 0,-3.894 -1.216,-7.052 -2.712,-7.052 -1.5,0 -2.712,3.158 -2.712,7.052 0,3.895 1.212,7.054 2.712,7.054 C -1.216,7.054 0,3.895 0,0" style="fill:#172951;fill-opacity:1;fill-rule:nonzero;stroke:none" id="path150" /></g><g id="g152" transform="translate(482.4038,485.7832)"><path d="m 0,0 c 0,-29.474 -23.896,-53.37 -53.372,-53.37 -29.474,0 -53.367,23.896 -53.367,53.37 0,29.476 23.893,53.368 53.367,53.368 C -23.896,53.368 0,29.476 0,0" style="fill:#172951;fill-opacity:1;fill-rule:nonzero;stroke:none" id="path154" /></g><g id="g156" transform="translate(382.4287,501.938)"><path d="m 0,0 c 0,8.674 7.038,15.704 15.708,15.704 8.677,0 15.709,-7.03 15.709,-15.704 0,-8.675 -7.032,-15.71 -15.709,-15.71 C 7.038,-15.71 0,-8.675 0,0" style="fill:#ffffff;fill-opacity:1;fill-rule:nonzero;stroke:none" id="path158" /></g><g id="g160" transform="translate(517.4751,164.291)"><path d="m 0,0 c 0,0 35.749,3.44 55.818,12.037 23.307,9.985 52.594,28.434 70.322,61.548" style="fill:#4560ab;fill-opacity:1;fill-rule:nonzero;stroke:#172951;stroke-width:4.413;stroke-linecap:round;stroke-linejoin:round;stroke-miterlimit:10;stroke-dasharray:none;stroke-opacity:1" id="path162" /></g><g id="g164" transform="translate(443.2085,466.3735)"><path d="m 0,0 c 0,3.318 2.692,6.013 6.018,6.013 3.315,0 6.007,-2.695 6.007,-6.013 0,-3.324 -2.692,-6.015 -6.007,-6.015 C 2.692,-6.015 0,-3.324 0,0" style="fill:#ffffff;fill-opacity:1;fill-rule:nonzero;stroke:none" id="path166" /></g><g id="g168" transform="translate(398.1367,454.3467)"><path d="M 0,0 C 0,3.32 2.693,6.012 6.018,6.012 9.336,6.012 12.029,3.32 12.029,0 12.029,-3.32 9.336,-6.014 6.018,-6.014 2.693,-6.014 0,-3.32 0,0" style="fill:#ffffff;fill-opacity:1;fill-rule:nonzero;stroke:none" id="path170" /></g><g id="g172" transform="translate(215.0137,513.8618)"><path d="m 0,0 c 0,5.14 4.166,9.302 9.303,9.302 5.141,0 9.303,-4.162 9.303,-9.302 0,-5.14 -4.162,-9.303 -9.303,-9.303 C 4.166,-9.303 0,-5.14 0,0" style="fill:#ffffff;fill-opacity:1;fill-rule:nonzero;stroke:none" id="path174" /></g><g id="g176" transform="translate(498.8823,454.3467)"><path d="M 0,0 C 0,0 18.615,5.574 28.571,-15.72" style="fill:none;stroke:#849dd1;stroke-width:4.413;stroke-linecap:round;stroke-linejoin:round;stroke-miterlimit:10;stroke-dasharray:none;stroke-opacity:1" id="path178" /></g><g id="g180" transform="translate(547.5229,356.1528)"><path d="m 0,0 c 9.317,-150.36 4.534,-118.801 4.158,-175.486 -0.377,-56.03 60.578,-62.007 114.842,-49.733 67.015,15.16 77.453,-6.872 49.706,-18.973 -27.748,-12.098 -73.248,-8.294 -73.248,-8.294 0,0 32.38,-11.11 3.008,-26.533 -14.036,-7.37 -54.205,-8.377 -86.484,17.078 -32.275,25.459 -48.505,30.34 -72.819,27.586 -24.33,-2.753 -75.36,3.001 -44.269,15.141 21.301,8.323 30.953,3.509 59.202,11.187 28.246,7.677 10.624,133.563 10.624,133.563" style="fill:#4560ab;fill-opacity:1;fill-rule:nonzero;stroke:#172951;stroke-width:4.413;stroke-linecap:round;stroke-linejoin:round;stroke-miterlimit:10;stroke-dasharray:none;stroke-opacity:1" id="path182" /></g><g id="g184" transform="translate(642.981,103.667)"><path d="m 0,0 c 0,0 -3.648,1.168 -12.46,2.51 -3.309,0.507 -8.496,0.161 -21.235,1.464 -12.346,1.264 -37.303,4.705 -55.508,26.284" style="fill:#4560ab;fill-opacity:1;fill-rule:nonzero;stroke:#172951;stroke-width:4.413;stroke-linecap:round;stroke-linejoin:round;stroke-miterlimit:10;stroke-dasharray:none;stroke-opacity:1" id="path186" /></g><g id="g188" transform="translate(638.981,99.667)"><path d="M 0,0 C 0,0 8.608,-2.954 12.922,-7.931" style="fill:none;stroke:#849dd1;stroke-width:4.413;stroke-linecap:round;stroke-linejoin:round;stroke-miterlimit:10;stroke-dasharray:none;stroke-opacity:1" id="path190" /></g><g id="g192" transform="translate(543.5229,352.1528)"><path d="m 0,0 c 9.317,-150.36 4.534,-118.801 4.158,-175.486 -0.377,-56.03 60.578,-62.007 114.842,-49.733 36.828,8.331 56.57,5.429 62.277,-0.883" style="fill:none;stroke:#849dd1;stroke-width:4.413;stroke-linecap:round;stroke-linejoin:round;stroke-miterlimit:10;stroke-dasharray:none;stroke-opacity:1" id="path194" /></g><g id="g196" transform="translate(638.981,99.667)"><path d="m 0,0 c 0,0 -3.648,1.168 -12.46,2.51 -3.309,0.507 -8.496,0.161 -21.235,1.464 -12.346,1.264 -37.303,4.705 -55.508,26.284" style="fill:none;stroke:#849dd1;stroke-width:4.413;stroke-linecap:round;stroke-linejoin:round;stroke-miterlimit:10;stroke-dasharray:none;stroke-opacity:1" id="path198" /></g><g id="g200" transform="translate(369.0576,227.1855)"><path d="M 0,0 C 0,0 7.78,-4.986 37.072,-20.758" style="fill:#4560ab;fill-opacity:1;fill-rule:nonzero;stroke:#172951;stroke-width:4.413;stroke-linecap:round;stroke-linejoin:round;stroke-miterlimit:10;stroke-dasharray:none;stroke-opacity:1" id="path202" /></g></g></g></g></svg>
