<?xml version="1.0" encoding="UTF-8" standalone="no"?><svg   xmlns:dc="http://purl.org/dc/elements/1.1/"   xmlns:cc="http://creativecommons.org/ns#"   xmlns:rdf="http://www.w3.org/1999/02/22-rdf-syntax-ns#"   xmlns:svg="http://www.w3.org/2000/svg"   xmlns="http://www.w3.org/2000/svg"   xmlns:sodipodi="http://sodipodi.sourceforge.net/DTD/sodipodi-0.dtd"   xmlns:inkscape="http://www.inkscape.org/namespaces/inkscape"   version="1.1"   id="svg2"   xml:space="preserve"   width="840"   height="840"   viewBox="0 0 840 840"   sodipodi:docname="Saint B 003 0421 A.ai"><metadata     id="metadata8"><rdf:RDF><cc:Work         rdf:about=""><dc:format>image/svg+xml</dc:format><dc:type           rdf:resource="http://purl.org/dc/dcmitype/StillImage" /></cc:Work></rdf:RDF></metadata><defs     id="defs6" /><sodipodi:namedview     pagecolor="#ffffff"     bordercolor="#666666"     borderopacity="1"     objecttolerance="10"     gridtolerance="10"     guidetolerance="10"     inkscape:pageopacity="0"     inkscape:pageshadow="2"     inkscape:window-width="640"     inkscape:window-height="480"     id="namedview4" /><g     id="g10"     inkscape:groupmode="layer"     inkscape:label="Saint B 003 0421 A"     transform="matrix(1.3333333,0,0,-1.3333333,0,840)"><g       id="g12"       transform="translate(434.1289,308.8613)"><path         d="M 0,0 V 7.841 H -7.842 V 0 h -7.842 v -7.842 h -7.84 -7.842 -7.842 -7.842 -7.841 V 0 h 7.841 v 7.841 h 7.842 v 7.842 h 7.842 v 7.841 h 7.842 v 7.842 h 7.84 v 7.842 7.841 7.842 7.841 7.842 7.842 7.841 7.842 h -7.84 v 7.841 7.842 h -7.842 v 7.842 h -7.842 v 7.841 h -7.842 -7.841 -7.841 v 7.842 h -7.842 v 7.841 h -7.842 -7.842 v 7.842 h -7.842 -7.84 -7.842 v 7.842 h -7.842 -7.841 -7.842 -7.841 -7.842 -7.842 -7.841 -7.842 -7.841 v -7.842 h -7.842 -7.842 v -7.842 h -7.841 -7.842 v -7.841 h -7.841 -7.842 v -7.842 h -7.842 v -7.841 h -7.841 v -7.842 h -7.842 v -7.842 -7.841 -7.842 -7.841 -7.842 -7.842 -7.841 -7.842 -7.841 -7.842 -7.842 h 7.842 v -7.841 h 7.841 V 7.841 0 h 7.842 v -7.842 h 7.842 v -7.842 h 7.841 v -7.841 h 7.842 v -7.841 -7.842 -7.842 -7.841 -7.841 -7.842 -7.842 -7.842 h 7.841 v -7.842 -7.84 -7.842 h 7.842 v -7.842 -7.842 -7.841 h 7.842 v -7.841 h 7.841 7.842 7.841 v 7.841 h 7.842 v -7.841 h 7.842 7.841 7.842 v 7.841 h 7.841 v 7.841 7.842 7.842 7.842 h 7.842 v -7.842 l 7.842,7.842 h 7.84 v -7.842 -7.842 h 7.842 v -7.842 -7.841 h 7.842 v -7.841 h 7.842 7.842 7.841 v 7.841 h 7.841 v 7.841 7.842 7.842 7.842 h 7.842 v -7.842 -7.842 h 7.842 v -7.842 -7.841 h 7.842 v -7.841 h 7.84 7.842 H 0 v 7.841 h 7.842 v 7.841 7.842 7.842 7.842 7.84 7.842 H 0 v 7.842 7.842 7.842 7.841 7.841 h -7.842 v 7.842 7.842 H 0 v 7.841 h 7.842 v 7.841 7.842 l 0,7.842 z"         style="fill:#e2e2e2;fill-opacity:1;fill-rule:nonzero;stroke:none"         id="path14" /></g><path       d="m 245.931,261.812 h -7.841 v -7.841 h 7.841 z"       style="fill:#969696;fill-opacity:1;fill-rule:nonzero;stroke:none"       id="path16" /><path       d="m 285.139,324.544 h -7.841 v -7.842 h 7.841 z"       style="fill:#969696;fill-opacity:1;fill-rule:nonzero;stroke:none"       id="path18" /><path       d="m 277.297,324.544 h -7.842 v -7.842 h 7.842 z"       style="fill:#e23a7f;fill-opacity:1;fill-rule:nonzero;stroke:none"       id="path20" /><path       d="m 292.98,324.544 h -7.842 v -7.842 h 7.842 z"       style="fill:#bebdc3;fill-opacity:1;fill-rule:nonzero;stroke:none"       id="path22" /><path       d="m 300.822,324.544 h -7.841 v -7.842 h 7.841 z"       style="fill:#bebdc3;fill-opacity:1;fill-rule:nonzero;stroke:none"       id="path24" /><path       d="m 277.297,316.703 h -7.842 v -7.841 h 7.842 z"       style="fill:#969696;fill-opacity:1;fill-rule:nonzero;stroke:none"       id="path26" /><path       d="m 308.664,324.544 h -7.842 v -7.842 h 7.842 z"       style="fill:#bebdc3;fill-opacity:1;fill-rule:nonzero;stroke:none"       id="path28" /><path       d="m 277.297,301.02 h -7.842 v -7.842 h 7.842 z"       style="fill:#bebdc3;fill-opacity:1;fill-rule:nonzero;stroke:none"       id="path30" /><path       d="m 277.297,308.861 h -7.842 v -7.842 h 7.842 z"       style="fill:#bebdc3;fill-opacity:1;fill-rule:nonzero;stroke:none"       id="path32" /><path       d="m 316.505,324.544 h -7.841 v -7.842 h 7.841 z"       style="fill:#bebdc3;fill-opacity:1;fill-rule:nonzero;stroke:none"       id="path34" /><path       d="m 387.079,324.544 h -7.841 v -7.842 h 7.841 z"       style="fill:#969696;fill-opacity:1;fill-rule:nonzero;stroke:none"       id="path36" /><path       d="m 277.297,183.396 h -7.842 v -7.841 h 7.842 z"       style="fill:#969696;fill-opacity:1;fill-rule:nonzero;stroke:none"       id="path38" /><path       d="m 277.297,199.079 h -7.842 v -7.842 h 7.842 z"       style="fill:#969696;fill-opacity:1;fill-rule:nonzero;stroke:none"       id="path40" /><path       d="m 277.297,191.237 h -7.842 v -7.842 h 7.842 z"       style="fill:#969696;fill-opacity:1;fill-rule:nonzero;stroke:none"       id="path42" /><path       d="m 277.297,214.762 h -7.842 v -7.841 h 7.842 z"       style="fill:#969696;fill-opacity:1;fill-rule:nonzero;stroke:none"       id="path44" /><path       d="m 300.822,308.861 h -7.841 v -7.842 h 7.841 z"       style="fill:#969696;fill-opacity:1;fill-rule:nonzero;stroke:none"       id="path46" /><path       d="m 292.98,308.861 h -7.842 v -7.842 h 7.842 z"       style="fill:#bebdc3;fill-opacity:1;fill-rule:nonzero;stroke:none"       id="path48" /><path       d="m 316.505,308.861 h -7.841 v -7.842 h 7.841 z"       style="fill:#bebdc3;fill-opacity:1;fill-rule:nonzero;stroke:none"       id="path50" /><path       d="m 308.664,308.861 h -7.842 v -7.842 h 7.842 z"       style="fill:#bebdc3;fill-opacity:1;fill-rule:nonzero;stroke:none"       id="path52" /><path       d="m 371.396,308.861 h -7.842 v -7.842 h 7.842 z"       style="fill:#969696;fill-opacity:1;fill-rule:nonzero;stroke:none"       id="path54" /><path       d="m 292.98,183.396 h -7.842 v -7.841 h 7.842 z"       style="fill:#969696;fill-opacity:1;fill-rule:nonzero;stroke:none"       id="path56" /><path       d="m 292.98,191.237 h -7.842 v -7.842 h 7.842 z"       style="fill:#969696;fill-opacity:1;fill-rule:nonzero;stroke:none"       id="path58" /><path       d="m 292.98,199.079 h -7.842 v -7.842 h 7.842 z"       style="fill:#969696;fill-opacity:1;fill-rule:nonzero;stroke:none"       id="path60" /><path       d="m 285.139,206.921 h -7.841 v -7.842 h 7.841 z"       style="fill:#969696;fill-opacity:1;fill-rule:nonzero;stroke:none"       id="path62" /><path       d="m 285.139,301.02 h -7.841 v -7.842 h 7.841 z"       style="fill:#bebdc3;fill-opacity:1;fill-rule:nonzero;stroke:none"       id="path64" /><path       d="m 285.139,308.861 h -7.841 v -7.842 h 7.841 z"       style="fill:#bebdc3;fill-opacity:1;fill-rule:nonzero;stroke:none"       id="path66" /><path       d="m 285.139,316.703 h -7.841 v -7.841 h 7.841 z"       style="fill:#bebdc3;fill-opacity:1;fill-rule:nonzero;stroke:none"       id="path68" /><path       d="m 292.98,316.703 h -7.842 v -7.841 h 7.842 z"       style="fill:#969696;fill-opacity:1;fill-rule:nonzero;stroke:none"       id="path70" /><path       d="m 300.822,316.703 h -7.841 v -7.841 h 7.841 z"       style="fill:#bebdc3;fill-opacity:1;fill-rule:nonzero;stroke:none"       id="path72" /><path       d="m 308.664,316.703 h -7.842 v -7.841 h 7.842 z"       style="fill:#bebdc3;fill-opacity:1;fill-rule:nonzero;stroke:none"       id="path74" /><path       d="m 316.505,316.703 h -7.841 v -7.841 h 7.841 z"       style="fill:#bebdc3;fill-opacity:1;fill-rule:nonzero;stroke:none"       id="path76" /><path       d="m 379.238,316.703 h -7.842 v -7.841 h 7.842 z"       style="fill:#969696;fill-opacity:1;fill-rule:nonzero;stroke:none"       id="path78" /><path       d="m 261.614,301.02 h -7.842 v -7.842 h 7.842 z"       style="fill:#bebdc3;fill-opacity:1;fill-rule:nonzero;stroke:none"       id="path80" /><path       d="m 261.614,308.861 h -7.842 v -7.842 h 7.842 z"       style="fill:#bebdc3;fill-opacity:1;fill-rule:nonzero;stroke:none"       id="path82" /><path       d="m 261.614,316.703 h -7.842 v -7.841 h 7.842 z"       style="fill:#bebdc3;fill-opacity:1;fill-rule:nonzero;stroke:none"       id="path84" /><path       d="m 300.822,340.228 h -7.841 v -7.842 h 7.841 z"       style="fill:#bebdc3;fill-opacity:1;fill-rule:nonzero;stroke:none"       id="path86" /><path       d="m 292.98,340.228 h -7.842 v -7.842 h 7.842 z"       style="fill:#bebdc3;fill-opacity:1;fill-rule:nonzero;stroke:none"       id="path88" /><path       d="m 285.139,340.228 h -7.841 v -7.842 h 7.841 z"       style="fill:#bebdc3;fill-opacity:1;fill-rule:nonzero;stroke:none"       id="path90" /><path       d="m 308.664,340.228 h -7.842 v -7.842 h 7.842 z"       style="fill:#bebdc3;fill-opacity:1;fill-rule:nonzero;stroke:none"       id="path92" /><path       d="m 261.614,332.386 h -7.842 v -7.841 h 7.842 z"       style="fill:#bebdc3;fill-opacity:1;fill-rule:nonzero;stroke:none"       id="path94" /><path       d="m 261.614,340.228 h -7.842 v -7.842 h 7.842 z"       style="fill:#bebdc3;fill-opacity:1;fill-rule:nonzero;stroke:none"       id="path96" /><path       d="m 261.614,324.544 h -7.842 v -7.842 h 7.842 z"       style="fill:#969696;fill-opacity:1;fill-rule:nonzero;stroke:none"       id="path98" /><path       d="m 261.614,214.762 h -7.842 v -7.841 h 7.842 z"       style="fill:#969696;fill-opacity:1;fill-rule:nonzero;stroke:none"       id="path100" /><path       d="m 261.614,206.921 h -7.842 v -7.842 h 7.842 z"       style="fill:#969696;fill-opacity:1;fill-rule:nonzero;stroke:none"       id="path102" /><path       d="m 261.614,183.396 h -7.842 v -7.841 h 7.842 z"       style="fill:#969696;fill-opacity:1;fill-rule:nonzero;stroke:none"       id="path104" /><path       d="m 261.614,191.237 h -7.842 v -7.842 h 7.842 z"       style="fill:#969696;fill-opacity:1;fill-rule:nonzero;stroke:none"       id="path106" /><path       d="m 261.614,199.079 h -7.842 v -7.842 h 7.842 z"       style="fill:#969696;fill-opacity:1;fill-rule:nonzero;stroke:none"       id="path108" /><path       d="m 261.614,222.604 h -7.842 v -7.842 h 7.842 z"       style="fill:#969696;fill-opacity:1;fill-rule:nonzero;stroke:none"       id="path110" /><path       d="m 300.822,348.069 h -7.841 v -7.842 h 7.841 z"       style="fill:#bebdc3;fill-opacity:1;fill-rule:nonzero;stroke:none"       id="path112" /><path       d="m 253.772,308.861 h -7.842 v -7.842 h 7.842 z"       style="fill:#bebdc3;fill-opacity:1;fill-rule:nonzero;stroke:none"       id="path114" /><path       d="m 253.772,324.544 h -7.842 v -7.842 h 7.842 z"       style="fill:#bebdc3;fill-opacity:1;fill-rule:nonzero;stroke:none"       id="path116" /><path       d="m 292.98,348.069 h -7.842 v -7.842 h 7.842 z"       style="fill:#bebdc3;fill-opacity:1;fill-rule:nonzero;stroke:none"       id="path118" /><path       d="m 253.772,348.069 h -7.842 v -7.842 h 7.842 z"       style="fill:#bebdc3;fill-opacity:1;fill-rule:nonzero;stroke:none"       id="path120" /><path       d="m 253.772,332.386 h -7.842 v -7.841 h 7.842 z"       style="fill:#bebdc3;fill-opacity:1;fill-rule:nonzero;stroke:none"       id="path122" /><path       d="m 253.772,316.703 h -7.842 v -7.841 h 7.842 z"       style="fill:#969696;fill-opacity:1;fill-rule:nonzero;stroke:none"       id="path124" /><path       d="m 253.772,340.228 h -7.842 v -7.842 h 7.842 z"       style="fill:#bebdc3;fill-opacity:1;fill-rule:nonzero;stroke:none"       id="path126" /><path       d="m 269.456,191.237 h -7.841 v -7.842 h 7.841 z"       style="fill:#969696;fill-opacity:1;fill-rule:nonzero;stroke:none"       id="path128" /><path       d="m 269.456,199.079 h -7.841 v -7.842 h 7.841 z"       style="fill:#969696;fill-opacity:1;fill-rule:nonzero;stroke:none"       id="path130" /><path       d="m 269.456,206.921 h -7.841 v -7.842 h 7.841 z"       style="fill:#969696;fill-opacity:1;fill-rule:nonzero;stroke:none"       id="path132" /><path       d="m 269.456,183.396 h -7.841 v -7.841 h 7.841 z"       style="fill:#969696;fill-opacity:1;fill-rule:nonzero;stroke:none"       id="path134" /><path       d="m 269.456,301.02 h -7.841 v -7.842 h 7.841 z"       style="fill:#bebdc3;fill-opacity:1;fill-rule:nonzero;stroke:none"       id="path136" /><path       d="m 269.456,222.604 h -7.841 v -7.842 h 7.841 z"       style="fill:#969696;fill-opacity:1;fill-rule:nonzero;stroke:none"       id="path138" /><path       d="m 269.456,308.861 h -7.841 v -7.842 h 7.841 z"       style="fill:#bebdc3;fill-opacity:1;fill-rule:nonzero;stroke:none"       id="path140" /><path       d="m 292.98,332.386 h -7.842 v -7.841 h 7.842 z"       style="fill:#bebdc3;fill-opacity:1;fill-rule:nonzero;stroke:none"       id="path142" /><path       d="m 285.139,332.386 h -7.841 v -7.841 h 7.841 z"       style="fill:#bebdc3;fill-opacity:1;fill-rule:nonzero;stroke:none"       id="path144" /><path       d="m 300.822,332.386 h -7.841 v -7.841 h 7.841 z"       style="fill:#bebdc3;fill-opacity:1;fill-rule:nonzero;stroke:none"       id="path146" /><path       d="m 308.664,332.386 h -7.842 v -7.841 h 7.842 z"       style="fill:#bebdc3;fill-opacity:1;fill-rule:nonzero;stroke:none"       id="path148" /><path       d="m 269.456,316.703 h -7.841 v -7.841 h 7.841 z"       style="fill:#969696;fill-opacity:1;fill-rule:nonzero;stroke:none"       id="path150" /><path       d="m 269.456,324.544 h -7.841 v -7.842 h 7.841 z"       style="fill:#e23a7f;fill-opacity:1;fill-rule:nonzero;stroke:none"       id="path152" /><g       id="g154"       transform="translate(269.4556,332.3857)"><path         d="M 0,0 H -7.841 V -7.841 H 0 7.842 V 0 Z"         style="fill:#7f8080;fill-opacity:1;fill-rule:nonzero;stroke:none"         id="path156" /></g><path       d="m 340.029,222.604 h -7.841 v -7.842 h 7.841 z"       style="fill:#969696;fill-opacity:1;fill-rule:nonzero;stroke:none"       id="path158" /><path       d="m 340.029,230.445 h -7.841 v -7.842 h 7.841 z"       style="fill:#969696;fill-opacity:1;fill-rule:nonzero;stroke:none"       id="path160" /><path       d="m 324.347,230.445 h -7.842 v -7.842 h 7.842 z"       style="fill:#969696;fill-opacity:1;fill-rule:nonzero;stroke:none"       id="path162" /><path       d="m 324.347,222.604 h -7.842 v -7.842 h 7.842 z"       style="fill:#969696;fill-opacity:1;fill-rule:nonzero;stroke:none"       id="path164" /><path       d="m 332.188,222.604 h -7.842 v -7.842 h 7.842 z"       style="fill:#969696;fill-opacity:1;fill-rule:nonzero;stroke:none"       id="path166" /><path       d="m 332.188,238.287 h -7.842 v -7.842 h 7.842 z"       style="fill:#969696;fill-opacity:1;fill-rule:nonzero;stroke:none"       id="path168" /><path       d="m 363.555,222.604 h -7.842 v -7.842 h 7.842 z"       style="fill:#969696;fill-opacity:1;fill-rule:nonzero;stroke:none"       id="path170" /><path       d="m 410.604,175.555 h 7.841 v 7.841 h -7.841 z"       style="fill:#969696;fill-opacity:1;fill-rule:nonzero;stroke:none"       id="path172" /><path       d="m 410.604,183.396 h 7.841 v 7.842 h -7.841 z"       style="fill:#969696;fill-opacity:1;fill-rule:nonzero;stroke:none"       id="path174" /><path       d="m 363.555,199.079 h -7.842 v -7.842 h 7.842 z"       style="fill:#969696;fill-opacity:1;fill-rule:nonzero;stroke:none"       id="path176" /><path       d="m 363.555,191.237 h -7.842 v -7.842 h 7.842 z"       style="fill:#969696;fill-opacity:1;fill-rule:nonzero;stroke:none"       id="path178" /><path       d="m 363.555,206.921 h -7.842 v -7.842 h 7.842 z"       style="fill:#969696;fill-opacity:1;fill-rule:nonzero;stroke:none"       id="path180" /><path       d="m 363.555,183.396 h -7.842 v -7.841 h 7.842 z"       style="fill:#969696;fill-opacity:1;fill-rule:nonzero;stroke:none"       id="path182" /><path       d="m 363.555,214.762 h -7.842 v -7.841 h 7.842 z"       style="fill:#969696;fill-opacity:1;fill-rule:nonzero;stroke:none"       id="path184" /><path       d="m 379.238,238.287 h -7.842 v -7.842 h 7.842 z"       style="fill:#969696;fill-opacity:1;fill-rule:nonzero;stroke:none"       id="path186" /><path       d="m 379.238,222.604 h -7.842 v -7.842 h 7.842 z"       style="fill:#969696;fill-opacity:1;fill-rule:nonzero;stroke:none"       id="path188" /><path       d="m 387.079,222.604 h -7.841 v -7.842 h 7.841 z"       style="fill:#969696;fill-opacity:1;fill-rule:nonzero;stroke:none"       id="path190" /><path       d="m 379.238,214.762 h -7.842 v -7.841 h 7.842 z"       style="fill:#969696;fill-opacity:1;fill-rule:nonzero;stroke:none"       id="path192" /><path       d="m 394.921,222.604 h -7.842 v -7.842 h 7.842 z"       style="fill:#969696;fill-opacity:1;fill-rule:nonzero;stroke:none"       id="path194" /><path       d="m 379.238,199.079 h -7.842 v -7.842 h 7.842 z"       style="fill:#969696;fill-opacity:1;fill-rule:nonzero;stroke:none"       id="path196" /><path       d="m 379.238,206.921 h -7.842 v -7.842 h 7.842 z"       style="fill:#969696;fill-opacity:1;fill-rule:nonzero;stroke:none"       id="path198" /><path       d="m 371.396,183.396 h 7.842 v 7.842 h -7.842 z"       style="fill:#969696;fill-opacity:1;fill-rule:nonzero;stroke:none"       id="path200" /><path       d="m 402.763,222.604 h -7.842 v -7.842 h 7.842 z"       style="fill:#969696;fill-opacity:1;fill-rule:nonzero;stroke:none"       id="path202" /><path       d="m 402.763,199.079 h 7.842 v 7.842 h -7.842 z"       style="fill:#969696;fill-opacity:1;fill-rule:nonzero;stroke:none"       id="path204" /><path       d="m 371.396,222.604 h -7.842 v -7.842 h 7.842 z"       style="fill:#969696;fill-opacity:1;fill-rule:nonzero;stroke:none"       id="path206" /><path       d="m 371.396,214.762 h -7.842 v -7.841 h 7.842 z"       style="fill:#969696;fill-opacity:1;fill-rule:nonzero;stroke:none"       id="path208" /><path       d="m 371.396,230.445 h -7.842 v -7.842 h 7.842 z"       style="fill:#969696;fill-opacity:1;fill-rule:nonzero;stroke:none"       id="path210" /><path       d="m 371.396,206.921 h -7.842 v -7.842 h 7.842 z"       style="fill:#969696;fill-opacity:1;fill-rule:nonzero;stroke:none"       id="path212" /><path       d="m 371.396,191.237 h -7.842 v -7.842 h 7.842 z"       style="fill:#969696;fill-opacity:1;fill-rule:nonzero;stroke:none"       id="path214" /><path       d="m 363.555,175.555 h 7.842 v 7.841 h -7.842 z"       style="fill:#969696;fill-opacity:1;fill-rule:nonzero;stroke:none"       id="path216" /><path       d="m 371.396,175.555 h 7.842 v 7.841 h -7.842 z"       style="fill:#969696;fill-opacity:1;fill-rule:nonzero;stroke:none"       id="path218" /><path       d="m 371.396,199.079 h -7.842 v -7.842 h 7.842 z"       style="fill:#969696;fill-opacity:1;fill-rule:nonzero;stroke:none"       id="path220" /><path       d="m 387.079,230.445 h -7.841 v -7.842 h 7.841 z"       style="fill:#969696;fill-opacity:1;fill-rule:nonzero;stroke:none"       id="path222" /><path       d="m 402.763,206.921 h 7.842 v 7.841 h -7.842 z"       style="fill:#969696;fill-opacity:1;fill-rule:nonzero;stroke:none"       id="path224" /><path       d="m 402.763,191.237 h 7.842 v 7.842 h -7.842 z"       style="fill:#969696;fill-opacity:1;fill-rule:nonzero;stroke:none"       id="path226" /><path       d="m 347.871,238.287 h -7.842 v -7.842 h 7.842 z"       style="fill:#969696;fill-opacity:1;fill-rule:nonzero;stroke:none"       id="path228" /><path       d="m 355.713,206.921 h -7.842 v -7.842 h 7.842 z"       style="fill:#969696;fill-opacity:1;fill-rule:nonzero;stroke:none"       id="path230" /><path       d="m 355.713,214.762 h -7.842 v -7.841 h 7.842 z"       style="fill:#969696;fill-opacity:1;fill-rule:nonzero;stroke:none"       id="path232" /><path       d="m 355.713,199.079 h -7.842 v -7.842 h 7.842 z"       style="fill:#969696;fill-opacity:1;fill-rule:nonzero;stroke:none"       id="path234" /><path       d="m 316.505,301.02 h -7.841 v -7.842 h 7.841 z"       style="fill:#bebdc3;fill-opacity:1;fill-rule:nonzero;stroke:none"       id="path236" /><path       d="m 324.347,301.02 h -7.842 v -7.842 h 7.842 z"       style="fill:#bebdc3;fill-opacity:1;fill-rule:nonzero;stroke:none"       id="path238" /><path       d="m 332.188,301.02 h -7.842 v -7.842 h 7.842 z"       style="fill:#969696;fill-opacity:1;fill-rule:nonzero;stroke:none"       id="path240" /><path       d="m 308.664,301.02 h -7.842 v -7.842 h 7.842 z"       style="fill:#969696;fill-opacity:1;fill-rule:nonzero;stroke:none"       id="path242" /><path       d="m 363.555,301.02 h -7.842 v -7.842 h 7.842 z"       style="fill:#969696;fill-opacity:1;fill-rule:nonzero;stroke:none"       id="path244" /><path       d="m 316.505,222.604 h -7.841 v -7.842 h 7.841 z"       style="fill:#969696;fill-opacity:1;fill-rule:nonzero;stroke:none"       id="path246" /><path       d="m 434.129,293.178 h -7.842 v -7.842 h 7.842 z"       style="fill:#969696;fill-opacity:1;fill-rule:nonzero;stroke:none"       id="path248" /><path       d="m 324.347,293.178 h -7.842 v -7.842 h 7.842 z"       style="fill:#969696;fill-opacity:1;fill-rule:nonzero;stroke:none"       id="path250" /><path       d="m 316.505,293.178 h -7.841 v -7.842 h 7.841 z"       style="fill:#969696;fill-opacity:1;fill-rule:nonzero;stroke:none"       id="path252" /><path       d="m 214.564,316.703 h -7.841 v -7.841 h 7.841 z"       style="fill:#969696;fill-opacity:1;fill-rule:nonzero;stroke:none"       id="path254" /><path       d="m 253.772,230.445 h -7.842 v -7.842 h 7.842 z"       style="fill:#969696;fill-opacity:1;fill-rule:nonzero;stroke:none"       id="path256" /><path       d="m 238.089,316.703 h -7.842 v -7.841 h 7.842 z"       style="fill:#bebdc3;fill-opacity:1;fill-rule:nonzero;stroke:none"       id="path258" /><path       d="m 238.089,308.861 h -7.842 v -7.842 h 7.842 z"       style="fill:#bebdc3;fill-opacity:1;fill-rule:nonzero;stroke:none"       id="path260" /><path       d="m 238.089,301.02 h -7.842 v -7.842 h 7.842 z"       style="fill:#bebdc3;fill-opacity:1;fill-rule:nonzero;stroke:none"       id="path262" /><path       d="m 238.089,324.544 h -7.842 v -7.842 h 7.842 z"       style="fill:#bebdc3;fill-opacity:1;fill-rule:nonzero;stroke:none"       id="path264" /><path       d="m 238.089,332.386 h -7.842 v -7.841 h 7.842 z"       style="fill:#bebdc3;fill-opacity:1;fill-rule:nonzero;stroke:none"       id="path266" /><path       d="m 238.089,293.178 h -7.842 v -7.842 h 7.842 z"       style="fill:#969696;fill-opacity:1;fill-rule:nonzero;stroke:none"       id="path268" /><path       d="m 238.089,340.228 h -7.842 v -7.842 h 7.842 z"       style="fill:#bebdc3;fill-opacity:1;fill-rule:nonzero;stroke:none"       id="path270" /><path       d="m 253.772,222.604 h -7.842 v -7.842 h 7.842 z"       style="fill:#969696;fill-opacity:1;fill-rule:nonzero;stroke:none"       id="path272" /><path       d="m 253.772,214.762 h -7.842 v -7.841 h 7.842 z"       style="fill:#969696;fill-opacity:1;fill-rule:nonzero;stroke:none"       id="path274" /><path       d="m 245.931,340.228 h -7.841 v -7.842 h 7.841 z"       style="fill:#bebdc3;fill-opacity:1;fill-rule:nonzero;stroke:none"       id="path276" /><path       d="m 245.931,301.02 h -7.841 v -7.842 h 7.841 z"       style="fill:#969696;fill-opacity:1;fill-rule:nonzero;stroke:none"       id="path278" /><path       d="m 253.772,355.911 h -7.842 v -7.841 h 7.842 z"       style="fill:#bebdc3;fill-opacity:1;fill-rule:nonzero;stroke:none"       id="path280" /><path       d="m 245.931,332.386 h -7.841 v -7.841 h 7.841 z"       style="fill:#bebdc3;fill-opacity:1;fill-rule:nonzero;stroke:none"       id="path282" /><path       d="m 245.931,316.703 h -7.841 v -7.841 h 7.841 z"       style="fill:#bebdc3;fill-opacity:1;fill-rule:nonzero;stroke:none"       id="path284" /><path       d="m 245.931,308.861 h -7.841 v -7.842 h 7.841 z"       style="fill:#969696;fill-opacity:1;fill-rule:nonzero;stroke:none"       id="path286" /><path       d="m 245.931,324.544 h -7.841 v -7.842 h 7.841 z"       style="fill:#bebdc3;fill-opacity:1;fill-rule:nonzero;stroke:none"       id="path288" /><path       d="m 261.614,355.911 h -7.842 v -7.841 h 7.842 z"       style="fill:#bebdc3;fill-opacity:1;fill-rule:nonzero;stroke:none"       id="path290" /><path       d="m 285.139,355.911 h -7.841 v -7.841 h 7.841 z"       style="fill:#bebdc3;fill-opacity:1;fill-rule:nonzero;stroke:none"       id="path292" /><path       d="m 269.456,355.911 h -7.841 v -7.841 h 7.841 z"       style="fill:#bebdc3;fill-opacity:1;fill-rule:nonzero;stroke:none"       id="path294" /><path       d="m 277.297,355.911 h -7.842 v -7.841 h 7.842 z"       style="fill:#bebdc3;fill-opacity:1;fill-rule:nonzero;stroke:none"       id="path296" /><path       d="m 292.98,355.911 h -7.842 v -7.841 h 7.842 z"       style="fill:#bebdc3;fill-opacity:1;fill-rule:nonzero;stroke:none"       id="path298" /><path       d="m 245.931,269.653 h -7.841 v -7.842 h 7.841 z"       style="fill:#969696;fill-opacity:1;fill-rule:nonzero;stroke:none"       id="path300" /><path       d="m 245.931,238.287 h -7.841 v -7.842 h 7.841 z"       style="fill:#969696;fill-opacity:1;fill-rule:nonzero;stroke:none"       id="path302" /><path       d="m 245.931,246.129 h -7.841 v -7.842 h 7.841 z"       style="fill:#969696;fill-opacity:1;fill-rule:nonzero;stroke:none"       id="path304" /><path       d="m 245.931,253.971 h -7.841 v -7.842 h 7.841 z"       style="fill:#969696;fill-opacity:1;fill-rule:nonzero;stroke:none"       id="path306" /><path       d="m 245.931,348.069 h -7.841 v -7.842 h 7.841 z"       style="fill:#bebdc3;fill-opacity:1;fill-rule:nonzero;stroke:none"       id="path308" /><path       d="m 230.248,379.436 h -7.841 v -7.842 h 7.841 z"       style="fill:#f7f8f8;fill-opacity:1;fill-rule:nonzero;stroke:none"       id="path310" /><path       d="m 222.406,308.861 h -7.842 v -7.842 h 7.842 z"       style="fill:#bebdc3;fill-opacity:1;fill-rule:nonzero;stroke:none"       id="path312" /><path       d="m 308.664,379.436 h -7.842 v -7.842 h 7.842 z"       style="fill:#f7f8f8;fill-opacity:1;fill-rule:nonzero;stroke:none"       id="path314" /><path       d="m 230.248,301.02 h -7.841 v -7.842 h 7.841 z"       style="fill:#bebdc3;fill-opacity:1;fill-rule:nonzero;stroke:none"       id="path316" /><g       id="g318"       transform="translate(238.0894,410.8018)"><path         d="m 0,0 v 7.842 h -7.842 v 7.841 h -7.841 V 7.842 0 h -7.842 v -7.841 -7.842 -7.842 -7.841 h 7.842 7.841 H 0 v 7.841 h 7.841 v 7.842 7.842 H 0 Z"         style="fill:#382d22;fill-opacity:1;fill-rule:nonzero;stroke:none"         id="path320" /></g><g       id="g322"       transform="translate(363.5547,324.5444)"><path         d="m 0,0 h -7.842 v 7.841 h -7.842 v 7.842 h -7.841 v 7.842 h -7.841 v 7.841 h -7.842 v 7.842 h -7.842 v -7.842 h -7.841 -7.842 v -7.841 -7.842 h 7.842 V 7.841 0 h 7.841 v -7.842 -7.841 -7.842 h 7.842 7.842 7.841 7.841 7.842 H 0 v 7.842 h 7.842 v 7.841 H 0 Z"         style="fill:#382d22;fill-opacity:1;fill-rule:nonzero;stroke:none"         id="path324" /></g><g       id="g326"       transform="translate(410.6045,261.8115)"><path         d="m 0,0 v 7.842 7.842 h -7.842 v 7.84 h -7.842 v -7.84 -7.842 h 7.842 V 0 -7.841 H 0 7.841 V 0 Z"         style="fill:#382d22;fill-opacity:1;fill-rule:nonzero;stroke:none"         id="path328" /></g><path       d="m 418.445,246.129 h 7.842 v 7.842 h -7.842 z"       style="fill:#382d22;fill-opacity:1;fill-rule:nonzero;stroke:none"       id="path330" /><path       d="m 418.445,277.495 h 7.842 v 7.841 h -7.842 z"       style="fill:#382d22;fill-opacity:1;fill-rule:nonzero;stroke:none"       id="path332" /><path       d="m 410.604,293.178 h -7.842 v -7.842 h 7.842 z"       style="fill:#382d22;fill-opacity:1;fill-rule:nonzero;stroke:none"       id="path334" /><g       id="g336"       transform="translate(363.5547,285.3359)"><path         d="M 0,0 H -7.842 V -7.841 H 0 v -7.842 h -7.842 v -7.841 H 0 v -7.841 -7.842 -7.842 h -7.842 v -7.842 H 0 7.842 v 7.842 7.842 7.842 7.841 7.841 7.842 V 0 7.842 H 0 Z"         style="fill:#382d22;fill-opacity:1;fill-rule:nonzero;stroke:none"         id="path338" /></g><g       id="g340"       transform="translate(300.8218,379.4355)"><path         d="m 0,0 h 7.842 7.841 v 7.841 h 7.842 v 7.842 7.842 7.841 h -7.842 v 7.842 H 7.842 V 31.366 H 0 V 23.525 15.683 H -7.841 V 7.841 H 0 Z"         style="fill:#382d22;fill-opacity:1;fill-rule:nonzero;stroke:none"         id="path342" /></g><g       id="g344"       transform="translate(402.7627,371.5938)"><path         d="m 0,0 v 7.842 h 7.842 v 7.841 7.842 H 0 v -7.842 h -7.842 -7.842 -7.84 v 7.842 h -7.842 V 15.683 7.842 0 h 7.842 7.84 7.842 z"         style="fill:#382d22;fill-opacity:1;fill-rule:nonzero;stroke:none"         id="path346" /></g><g       id="g348"       transform="translate(222.4063,355.9106)"><path         d="M 0,0 V 7.842 H -7.842 V 0 h -7.841 v -7.841 -7.842 -7.842 -7.841 -7.842 h 7.841 v -7.841 H 0 v -7.842 h 7.841 v 7.842 7.841 7.842 7.841 7.842 h 7.842 V -7.841 0 H 7.841 Z"         style="fill:#382d22;fill-opacity:1;fill-rule:nonzero;stroke:none"         id="path350" /></g><g       id="g352"       transform="translate(238.0894,410.8018)"><path         d="m 0,0 v -7.841 h 7.841 v -7.842 -7.842 h 7.842 v -7.841 -7.842 -7.841 h 7.842 v -7.842 h 7.841 7.842 v 7.842 h 7.841 v 7.841 7.842 7.841 h 7.842 v 7.842 h 7.841 V -7.841 0 h 7.842 v 7.842 h 7.842 v 7.841 7.842 7.841 7.842 h -7.842 v 7.841 H 62.732 54.891 47.049 39.208 31.366 23.525 15.683 V 39.208 H 7.841 0 V 31.366 H -7.842 V 23.525 15.683 7.842 H 0 Z"         style="fill:#d2d7d1;fill-opacity:1;fill-rule:nonzero;stroke:none"         id="path354" /></g><g       id="g356"       transform="translate(324.3467,199.0791)"><path         d="M 0,0 7.842,7.842 H 0 Z"         style="fill:#d2d7d1;fill-opacity:1;fill-rule:nonzero;stroke:none"         id="path358" /></g><path       d="m 324.347,222.604 h 7.842 v 7.842 h -7.842 z"       style="fill:#d2d7d1;fill-opacity:1;fill-rule:nonzero;stroke:none"       id="path360" /><path       d="m 371.396,222.604 h 7.842 v 7.842 h -7.842 z"       style="fill:#d2d7d1;fill-opacity:1;fill-rule:nonzero;stroke:none"       id="path362" /><path       d="m 347.871,230.445 h -7.842 v -7.842 h 7.842 z"       style="fill:#d2d7d1;fill-opacity:1;fill-rule:nonzero;stroke:none"       id="path364" /><g       id="g366"       transform="translate(394.9209,246.1289)"><path         d="m 0,0 h -7.842 v 7.842 h -7.841 V 0 h -7.841 v -7.842 h 7.841 v -7.842 H -7.842 0 v 7.842 z"         style="fill:#d2d7d1;fill-opacity:1;fill-rule:nonzero;stroke:none"         id="path368" /></g><g       id="g370"       transform="translate(426.2871,199.0791)"><path         d="m 0,0 h -7.842 v 7.842 7.841 H 0 v 7.841 7.842 7.842 7.842 h -7.842 -7.841 v -7.842 h -7.841 v -7.842 h -7.842 v -7.842 h 7.842 v -7.841 h 7.841 V 7.842 0 -7.842 h 7.841 v -7.842 -7.84 H 0 7.842 v 7.84 7.842 V 0 7.842 L 0,7.842 Z"         style="fill:#d2d7d1;fill-opacity:1;fill-rule:nonzero;stroke:none"         id="path372" /></g><g       id="g374"       transform="translate(426.2871,301.0195)"><path         d="m 0,0 h -7.842 v -7.842 h -7.841 v -7.842 -7.84 -7.842 -7.842 h 7.841 v 7.842 7.842 7.84 H 0 v 7.842 H 7.842 V 0 Z"         style="fill:#d2d7d1;fill-opacity:1;fill-rule:nonzero;stroke:none"         id="path376" /></g><g       id="g378"       transform="translate(340.0293,301.0195)"><path         d="m 0,0 h -7.841 v -7.842 h -7.842 v -7.842 h -7.841 -7.842 v 7.842 h -7.842 V 0 h -7.841 -7.842 v -7.842 h -7.841 -7.842 -7.841 -7.842 V 0 h -7.842 v -7.842 h -7.841 v -7.842 -7.84 -7.842 h 7.841 v -7.842 -7.841 -7.842 -7.841 -7.842 h 7.842 v -7.842 h 7.842 7.841 v -7.842 h 7.842 v -7.841 h 7.841 v -7.841 h 7.842 v -7.842 -7.842 -7.841 h 7.841 7.842 v 7.841 7.842 7.842 7.841 7.841 7.842 h 7.842 v 7.842 h 7.841 v 7.842 h 7.842 v -7.842 H 0 v 7.842 h 7.842 7.842 v 7.841 7.842 7.841 H 7.842 v 7.842 h 7.842 v 7.842 H 7.842 v 7.84 h 7.842 V -7.842 0 L 7.842,0 Z"         style="fill:#d2d7d1;fill-opacity:1;fill-rule:nonzero;stroke:none"         id="path380" /></g><g       id="g382"       transform="translate(206.7231,434.3267)"><path         d="m 0,0 v -7.842 h -7.842 v -7.841 h -7.842 v -7.842 -7.841 h 7.842 v -7.842 H 0 v 7.842 7.841 h 7.841 v 7.842 7.841 h 7.842 V 0 H 7.841 Z"         style="fill:#5a4c29;fill-opacity:1;fill-rule:nonzero;stroke:none"         id="path384" /></g><g       id="g386"       transform="translate(394.9209,418.6436)"><path         d="m 0,0 h -7.842 v 7.841 h -7.841 -7.841 v 7.842 h -7.842 v 7.841 h -7.842 -7.842 v 7.842 h -7.842 -7.84 -7.842 v 7.842 h -7.842 -7.841 v -7.842 h 7.841 V 23.524 15.683 7.841 0 -7.842 h 7.842 v -7.841 -7.842 -7.842 -7.841 h 7.842 v -7.842 h 7.84 v -7.841 h 7.842 v -7.842 h 7.842 7.842 7.842 v 7.842 7.841 h -7.842 v 7.842 7.841 7.842 7.842 h 7.842 7.841 7.841 H 0 7.842 v 7.841 H 0 Z"         style="fill:#5a4c29;fill-opacity:1;fill-rule:nonzero;stroke:none"         id="path388" /></g><g       id="g390"       transform="translate(379.2383,277.4951)"><path         d="m 0,0 h -7.842 v -7.842 -7.842 -7.84 -7.842 H 0 v 7.842 h 7.841 v 7.84 7.842 l -7.841,0 z"         style="fill:#5a4c29;fill-opacity:1;fill-rule:nonzero;stroke:none"         id="path392" /></g><path       d="m 418.445,199.079 h 7.842 v 7.842 h -7.842 z"       style="fill:#5a4c29;fill-opacity:1;fill-rule:nonzero;stroke:none"       id="path394" /><path       d="m 426.287,301.02 h 7.842 v 7.842 h -7.842 z"       style="fill:#5a4c29;fill-opacity:1;fill-rule:nonzero;stroke:none"       id="path396" /><path       d="m 394.921,285.336 h 7.842 v 7.842 h -7.842 z"       style="fill:#5a4c29;fill-opacity:1;fill-rule:nonzero;stroke:none"       id="path398" /><g       id="g400"       transform="translate(371.3965,316.7026)"><path         d="m 0,0 h 7.842 v 7.842 h 7.841 v 7.841 H 7.842 v 7.842 7.842 7.841 H 0 h -7.842 -7.842 -7.841 v 7.842 h -7.842 v 7.841 h -7.841 v 7.842 h -7.842 v 7.841 h -7.842 V 62.733 54.891 47.05 h 7.842 v -7.842 h 7.842 v -7.841 h 7.841 v -7.842 h 7.842 v -7.842 h 7.841 V 7.842 h 7.842 l 0,-7.842 z"         style="fill:#44392e;fill-opacity:1;fill-rule:nonzero;stroke:none"         id="path402" /></g><path       d="m 347.871,261.812 h 7.842 v 7.842 h -7.842 z"       style="fill:#44392e;fill-opacity:1;fill-rule:nonzero;stroke:none"       id="path404" /><path       d="m 355.713,269.653 h 7.842 v 7.842 h -7.842 z"       style="fill:#44392e;fill-opacity:1;fill-rule:nonzero;stroke:none"       id="path406" /><path       d="m 387.079,222.604 h 7.842 v 7.842 h -7.842 z"       style="fill:#44392e;fill-opacity:1;fill-rule:nonzero;stroke:none"       id="path408" /><g       id="g410"       transform="translate(355.7129,246.1289)"><path         d="M 0,0 V -7.842 H 7.842 V 0 7.842 15.683 H 0 V 7.842 Z"         style="fill:#44392e;fill-opacity:1;fill-rule:nonzero;stroke:none"         id="path412" /></g><g       id="g414"       transform="translate(418.4453,253.9707)"><path         d="m 0,0 h -7.841 -7.842 v 7.841 7.842 h -7.841 v 7.841 7.841 7.842 h -7.842 -7.841 -7.842 v -7.842 -7.841 h 7.842 v -7.841 h 7.841 V 7.841 0 -7.842 h 7.842 v -7.842 -7.841 h 7.841 v 7.841 h 7.842 v 7.842 H 0 Z"         style="fill:#44392e;fill-opacity:1;fill-rule:nonzero;stroke:none"         id="path416" /></g><g       id="g418"       transform="translate(347.8711,230.4453)"><path         d="m 0,0 v -7.842 h -7.842 v -7.842 -7.84 H 0 v 7.84 h 7.842 v 7.842 h 7.842 V 0 H 7.842 V 7.842 L 0,7.842 Z"         style="fill:#44392e;fill-opacity:1;fill-rule:nonzero;stroke:none"         id="path420" /></g><g       id="g422"       transform="translate(426.2871,214.7617)"><path         d="M 0,0 H -7.842 V -7.841 H 0 7.842 V 0 Z"         style="fill:#44392e;fill-opacity:1;fill-rule:nonzero;stroke:none"         id="path424" /></g><path       d="m 347.871,277.495 h 7.842 v 7.841 h -7.842 z"       style="fill:#44392e;fill-opacity:1;fill-rule:nonzero;stroke:none"       id="path426" /><path       d="m 402.763,277.495 h 7.842 v 7.841 h -7.842 z"       style="fill:#44392e;fill-opacity:1;fill-rule:nonzero;stroke:none"       id="path428" /><g       id="g430"       transform="translate(214.5645,387.2769)"><path         d="M 0,0 V 7.842 H -7.841 V 0 v -7.841 -7.842 -7.841 -7.842 H 0 v 7.842 h 7.842 v 7.841 7.842 H 0 Z"         style="fill:#44392e;fill-opacity:1;fill-rule:nonzero;stroke:none"         id="path432" /></g><g       id="g434"       transform="translate(379.2383,387.2769)"><path         d="m 0,0 h 7.841 7.842 7.841 v 7.842 7.842 H 15.683 7.841 0 -7.842 V 7.842 H 0 Z"         style="fill:#44392e;fill-opacity:1;fill-rule:nonzero;stroke:none"         id="path436" /></g><g       id="g438"       transform="translate(269.4556,348.0693)"><path         d="m 0,0 h -7.841 -7.842 v -7.842 h 7.842 v -7.842 H 0 7.842 v 7.842 h 7.841 V 0 H 7.842 Z"         style="fill:#23140c;fill-opacity:1;fill-rule:nonzero;stroke:none"         id="path440" /></g><g       id="g442"       transform="translate(308.6636,379.4355)"><path         d="m 0,0 v -7.842 h -7.842 v -7.841 -7.842 H 0 7.841 v 7.842 7.841 V 0 Z"         style="fill:#23140c;fill-opacity:1;fill-rule:nonzero;stroke:none"         id="path444" /></g><g       id="g446"       transform="translate(230.2476,371.5938)"><path         d="m 0,0 h -7.841 v -7.841 -7.842 H 0 7.842 V -7.841 0 7.842 H 0 Z"         style="fill:#23140c;fill-opacity:1;fill-rule:nonzero;stroke:none"         id="path448" /></g><path       d="m 206.723,434.327 h -7.842 v -7.842 h 7.842 z"       style="fill:#0e0707;fill-opacity:1;fill-rule:nonzero;stroke:none"       id="path450" /><g       id="g452"       transform="translate(379.2383,426.4849)"><path         d="m 0,0 h 7.841 7.842 V 7.842 H 7.841 0 -7.842 V 0 Z"         style="fill:#0e0707;fill-opacity:1;fill-rule:nonzero;stroke:none"         id="path454" /></g><g       id="g456"       transform="translate(355.7129,442.168)"><path         d="M 0,0 H 7.842 V 7.842 H 0 -7.842 V 0 Z"         style="fill:#0e0707;fill-opacity:1;fill-rule:nonzero;stroke:none"         id="path458" /></g><path       d="m 371.396,442.168 h -7.842 v -7.841 h 7.842 z"       style="fill:#0e0707;fill-opacity:1;fill-rule:nonzero;stroke:none"       id="path460" /><g       id="g462"       transform="translate(222.4063,434.3267)"><path         d="M 0,0 V -7.842 H 7.841 V 0 7.841 h 7.842 v 7.842 H 7.841 0 V 7.841 h -7.842 -7.841 V 0 h 7.841 z"         style="fill:#0e0707;fill-opacity:1;fill-rule:nonzero;stroke:none"         id="path464" /></g><g       id="g466"       transform="translate(402.7627,402.9604)"><path         d="m 0,0 h 7.842 v 7.841 7.842 H 0 V 7.841 Z"         style="fill:#0e0707;fill-opacity:1;fill-rule:nonzero;stroke:none"         id="path468" /></g><g       id="g470"       transform="translate(206.7231,402.9604)"><path         d="M 0,0 V -7.842 H 7.841 V 0 7.841 H 0 Z"         style="fill:#0e0707;fill-opacity:1;fill-rule:nonzero;stroke:none"         id="path472" /></g><g       id="g474"       transform="translate(191.0396,348.0693)"><path         d="m 0,0 v 7.841 7.842 7.841 7.842 7.842 7.841 7.842 7.841 7.842 H -7.841 V 62.732 54.891 47.049 39.208 31.366 23.524 15.683 7.841 0 -7.842 -15.684 H 0 v 7.842 z"         style="fill:#0e0707;fill-opacity:1;fill-rule:nonzero;stroke:none"         id="path476" /></g><path       d="m 198.881,426.485 h -7.842 v -7.841 h 7.842 z"       style="fill:#0e0707;fill-opacity:1;fill-rule:nonzero;stroke:none"       id="path478" /><g       id="g480"       transform="translate(214.5645,418.6436)"><path         d="M 0,0 V -7.842 H 7.842 V 0 7.841 H 0 Z"         style="fill:#0e0707;fill-opacity:1;fill-rule:nonzero;stroke:none"         id="path482" /></g><path       d="m 402.763,426.485 h -7.842 v -7.841 h 7.842 z"       style="fill:#0e0707;fill-opacity:1;fill-rule:nonzero;stroke:none"       id="path484" /><g       id="g486"       transform="translate(253.7725,450.0098)"><path         d="m 0,0 v 7.841 h -7.842 -7.841 V 0 h 7.841 z"         style="fill:#0e0707;fill-opacity:1;fill-rule:nonzero;stroke:none"         id="path488" /></g><g       id="g490"       transform="translate(332.1885,450.0098)"><path         d="m 0,0 h 7.841 7.842 V 7.841 H 7.841 0 -7.842 V 0 Z"         style="fill:#0e0707;fill-opacity:1;fill-rule:nonzero;stroke:none"         id="path492" /></g><g       id="g494"       transform="translate(269.4556,457.8511)"><path         d="m 0,0 h 7.842 7.841 7.842 7.841 7.842 7.841 7.842 V 7.842 H 47.049 39.208 31.366 23.525 15.683 7.842 0 -7.841 -15.683 V 0 h 7.842 z"         style="fill:#0e0707;fill-opacity:1;fill-rule:nonzero;stroke:none"         id="path496" /></g><path       d="m 269.456,199.079 h 7.842 v 7.842 h -7.842 z"       style="fill:#0e0707;fill-opacity:1;fill-rule:nonzero;stroke:none"       id="path498" /><g       id="g500"       transform="translate(371.3965,301.0195)"><path         d="M 0,0 H -7.842 V -7.842 H 0 h 7.842 7.841 7.841 7.842 7.842 7.841 V 0 H 39.208 31.366 23.524 15.683 7.842 V 7.842 H 0 Z"         style="fill:#0e0707;fill-opacity:1;fill-rule:nonzero;stroke:none"         id="path502" /></g><g       id="g504"       transform="translate(285.1387,191.2373)"><path         d="M 0,0 V 7.842 H -7.841 V 0 -7.842 -15.683 H 0 v 7.841 z"         style="fill:#0e0707;fill-opacity:1;fill-rule:nonzero;stroke:none"         id="path506" /></g><path       d="m 434.129,316.703 h -7.842 v -7.841 h 7.842 z"       style="fill:#0e0707;fill-opacity:1;fill-rule:nonzero;stroke:none"       id="path508" /><path       d="m 379.238,308.861 h 7.841 v 7.841 h -7.841 z"       style="fill:#0e0707;fill-opacity:1;fill-rule:nonzero;stroke:none"       id="path510" /><g       id="g512"       transform="translate(387.0791,348.0693)"><path         d="M 0,0 V 7.841 H -7.841 V 0 -7.842 -15.684 H 0 v 7.842 z"         style="fill:#0e0707;fill-opacity:1;fill-rule:nonzero;stroke:none"         id="path514" /></g><path       d="m 261.614,206.921 h 7.841 v 7.841 h -7.841 z"       style="fill:#0e0707;fill-opacity:1;fill-rule:nonzero;stroke:none"       id="path516" /><g       id="g518"       transform="translate(261.6143,175.5547)"><path         d="M 0,0 H -7.842 V -7.842 H 0 7.841 15.683 V 0 H 7.841 Z"         style="fill:#0e0707;fill-opacity:1;fill-rule:nonzero;stroke:none"         id="path520" /></g><g       id="g522"       transform="translate(387.0791,332.3857)"><path         d="m 0,0 v -7.841 -7.842 h 7.842 v 7.842 h 7.842 V 0 H 7.842 Z"         style="fill:#0e0707;fill-opacity:1;fill-rule:nonzero;stroke:none"         id="path524" /></g><path       d="m 402.763,332.386 h 7.842 v 7.842 h -7.842 z"       style="fill:#0e0707;fill-opacity:1;fill-rule:nonzero;stroke:none"       id="path526" /><g       id="g528"       transform="translate(332.1885,214.7617)"><path         d="m 0,0 h -7.842 -7.842 -7.841 v -7.841 -7.842 -7.841 -7.842 -7.841 h 7.841 v 7.841 7.842 7.841 7.842 H -7.842 0 7.841 l 0,7.841 z"         style="fill:#0e0707;fill-opacity:1;fill-rule:nonzero;stroke:none"         id="path530" /></g><g       id="g532"       transform="translate(418.4453,269.6533)"><path         d="m 0,0 v -7.842 -7.841 h 7.842 v -7.841 -7.842 -7.842 -7.842 -7.842 h 7.842 v -7.84 -7.842 -7.842 -7.842 -7.841 h 7.841 v 7.841 7.842 7.842 7.842 7.84 7.842 h -7.841 v 7.842 7.842 7.842 7.841 7.841 H 7.842 V 0 7.842 H 0 Z"         style="fill:#0e0707;fill-opacity:1;fill-rule:nonzero;stroke:none"         id="path534" /></g><g       id="g536"       transform="translate(418.4453,175.5547)"><path         d="M 0,0 H -7.841 V -7.842 H 0 7.842 15.684 V 0 H 7.842 Z"         style="fill:#0e0707;fill-opacity:1;fill-rule:nonzero;stroke:none"         id="path538" /></g><g       id="g540"       transform="translate(363.5547,175.5547)"><path         d="M 0,0 H -7.842 V -7.842 H 0 7.842 15.684 V 0 H 7.842 Z"         style="fill:#0e0707;fill-opacity:1;fill-rule:nonzero;stroke:none"         id="path542" /></g><g       id="g544"       transform="translate(402.7627,206.9209)"><path         d="m 0,0 v 7.841 h -7.842 -7.842 -7.84 V 0 v -7.842 -7.842 -7.841 -7.841 h 7.84 v 7.841 7.841 7.842 V 0 h 7.842 v -7.842 -7.842 H 0 v 7.842 z"         style="fill:#0e0707;fill-opacity:1;fill-rule:nonzero;stroke:none"         id="path546" /></g><g       id="g548"       transform="translate(410.6045,191.2373)"><path         d="m 0,0 h -7.842 v -7.842 -7.841 H 0 v 7.841 z"         style="fill:#0e0707;fill-opacity:1;fill-rule:nonzero;stroke:none"         id="path550" /></g><g       id="g552"       transform="translate(347.8711,206.9209)"><path         d="m 0,0 h -7.842 v -7.842 -7.842 H 0 v 7.842 z"         style="fill:#0e0707;fill-opacity:1;fill-rule:nonzero;stroke:none"         id="path554" /></g><g       id="g556"       transform="translate(355.7129,191.2373)"><path         d="m 0,0 h -7.842 v -7.842 -7.841 H 0 v 7.841 z"         style="fill:#0e0707;fill-opacity:1;fill-rule:nonzero;stroke:none"         id="path558" /></g><g       id="g560"       transform="translate(434.1289,308.8613)"><path         d="m 0,0 v -7.842 -7.842 -7.841 h 7.842 v 7.841 7.842 V 0 Z"         style="fill:#0e0707;fill-opacity:1;fill-rule:nonzero;stroke:none"         id="path562" /></g><path       d="m 426.287,308.861 h -7.842 v -7.842 h 7.842 z"       style="fill:#0e0707;fill-opacity:1;fill-rule:nonzero;stroke:none"       id="path564" /><g       id="g566"       transform="translate(292.9805,175.5547)"><path         d="M 0,0 H -7.842 V -7.842 H 0 7.841 15.683 V 0 H 7.841 Z"         style="fill:#0e0707;fill-opacity:1;fill-rule:nonzero;stroke:none"         id="path568" /></g><path       d="m 426.287,277.495 h 7.842 v 7.841 h -7.842 z"       style="fill:#0e0707;fill-opacity:1;fill-rule:nonzero;stroke:none"       id="path570" /><path       d="m 355.713,285.336 h 7.842 v 7.842 h -7.842 z"       style="fill:#0e0707;fill-opacity:1;fill-rule:nonzero;stroke:none"       id="path572" /><path       d="m 206.723,301.02 h 7.841 v 7.842 h -7.841 z"       style="fill:#0e0707;fill-opacity:1;fill-rule:nonzero;stroke:none"       id="path574" /><g       id="g576"       transform="translate(410.6045,387.2769)"><path         d="m 0,0 v -7.841 -7.842 -7.841 -7.842 -7.842 -7.841 h 7.841 v 7.841 7.842 7.842 7.841 7.842 V 0 7.842 15.684 H 0 V 7.842 Z"         style="fill:#0e0707;fill-opacity:1;fill-rule:nonzero;stroke:none"         id="path578" /></g><g       id="g580"       transform="translate(371.3965,387.2769)"><path         d="m 0,0 v 7.842 7.842 H -7.842 V 7.842 0 -7.841 -15.683 H 0 v 7.842 z"         style="fill:#0e0707;fill-opacity:1;fill-rule:nonzero;stroke:none"         id="path582" /></g><g       id="g584"       transform="translate(206.7231,324.5444)"><path         d="m 0,0 v 7.841 7.842 7.842 7.841 7.842 7.841 7.842 7.841 7.842 H -7.842 V 62.732 54.891 47.049 39.208 31.366 23.525 15.683 7.841 h -7.842 V 0 h 7.842 v -7.842 -7.841 H 0 v 7.841 z"         style="fill:#0e0707;fill-opacity:1;fill-rule:nonzero;stroke:none"         id="path586" /></g><g       id="g588"       transform="translate(253.7725,191.2373)"><path         d="m 0,0 v 7.842 7.842 h -7.842 v 7.84 7.842 7.842 h -7.841 v 7.842 7.842 7.841 7.841 7.842 7.842 7.841 h -7.842 V 86.258 78.416 70.574 62.733 54.892 47.05 39.208 31.366 h 7.842 v -7.842 -7.84 -7.842 h 7.841 V 0 -7.842 -15.683 H 0 v 7.841 z"         style="fill:#0e0707;fill-opacity:1;fill-rule:nonzero;stroke:none"         id="path590" /></g><path       d="m 214.564,293.178 h 7.842 v 7.842 h -7.842 z"       style="fill:#0e0707;fill-opacity:1;fill-rule:nonzero;stroke:none"       id="path592" /><path       d="m 222.406,285.336 h 7.841 v 7.842 h -7.841 z"       style="fill:#0e0707;fill-opacity:1;fill-rule:nonzero;stroke:none"       id="path594" /><g       id="g596"       transform="translate(379.2383,371.5938)"><path         d="m 0,0 h -7.842 v -7.841 -7.842 H 0 v 7.842 z"         style="fill:#0e0707;fill-opacity:1;fill-rule:nonzero;stroke:none"         id="path598" /></g><path       d="m 402.763,418.644 h -7.842 v -7.842 h 7.842 z"       style="fill:#2b2217;fill-opacity:1;fill-rule:nonzero;stroke:none"       id="path600" /><path       d="m 394.921,426.485 h -7.842 v -7.841 h 7.842 z"       style="fill:#2b2217;fill-opacity:1;fill-rule:nonzero;stroke:none"       id="path602" /><g       id="g604"       transform="translate(285.1387,387.2769)"><path         d="m 0,0 v -7.841 -7.842 -7.841 h -7.841 v -7.842 H 0 7.842 v -7.842 h 7.841 v 7.842 7.842 7.841 7.842 V 0 H 7.842 Z"         style="fill:#2b2217;fill-opacity:1;fill-rule:nonzero;stroke:none"         id="path606" /></g><g       id="g608"       transform="translate(191.0396,395.1187)"><path         d="m 0,0 v -7.842 -7.841 -7.842 -7.841 -7.842 -7.841 -7.842 -7.842 h 7.842 v 7.842 7.842 7.841 7.842 7.841 7.842 7.841 V 0 7.842 H 0 Z"         style="fill:#2b2217;fill-opacity:1;fill-rule:nonzero;stroke:none"         id="path610" /></g><path       d="m 402.763,395.119 h 7.842 v 7.842 h -7.842 z"       style="fill:#2b2217;fill-opacity:1;fill-rule:nonzero;stroke:none"       id="path612" /><g       id="g614"       transform="translate(402.7627,371.5938)"><path         d="m 0,0 h -7.842 -7.842 -7.84 v -7.841 -7.842 h 7.84 v -7.841 -7.842 -7.842 H -7.842 0 v 7.842 h 7.842 v 7.842 7.841 7.842 V 0 7.842 H 0 Z"         style="fill:#2b2217;fill-opacity:1;fill-rule:nonzero;stroke:none"         id="path616" /></g><g       id="g618"       transform="translate(253.7725,371.5938)"><path         d="m 0,0 v 7.842 7.841 h -7.842 -7.841 V 7.842 0 v -7.841 -7.842 -7.841 h 7.841 v 7.841 H 0 7.842 v 7.842 H 0 Z"         style="fill:#2b2217;fill-opacity:1;fill-rule:nonzero;stroke:none"         id="path620" /></g></g></svg>
